<svg xmlns="http://www.w3.org/2000/svg" xmlns:xlink="http://www.w3.org/1999/xlink" viewBox="0 0 181.66 46.5"><defs><style>.cls-1{fill:url(#_GS_Yellow_to_Yellow_Lt_Green);}.cls-2{fill:url(#_GS_Yellow_Lt_Green_to_Lt_Green);}.cls-3{fill:url(#_GS_Jade_Lt_Blue_to_Lt_Blue);}.cls-4{fill:url(#_GS_Jade_to_Jade_Lt_Blue);}.cls-5{fill:url(#_GS_Lt_Blue_to_Blue);}.cls-6{fill:url(#_GS_Red_to_Yellow);}.cls-7{fill:url(#_GS_Lt_Green_to_Jade);}.cls-8{fill:#0072bc;}.cls-9{fill:#6d6e71;}</style><linearGradient id="_GS_Yellow_to_Yellow_Lt_Green" x1="-1700.63" y1="-135.3" x2="-1718.48" y2="-117.45" gradientTransform="translate(652.44 64.47) scale(0.38)" gradientUnits="userSpaceOnUse"><stop offset="0" stop-color="#fdb913"/><stop offset="1" stop-color="#c4bf30"/></linearGradient><linearGradient id="_GS_Yellow_Lt_Green_to_Lt_Green" x1="-1718.99" y1="-104.44" x2="-1703.69" y2="-89.13" gradientTransform="translate(652.44 64.47) scale(0.38)" gradientUnits="userSpaceOnUse"><stop offset="0" stop-color="#c4bf30"/><stop offset="1" stop-color="#80c342"/></linearGradient><linearGradient id="_GS_Jade_Lt_Blue_to_Lt_Blue" x1="-1610.42" y1="-115.83" x2="-1597.4" y2="-102.81" gradientTransform="translate(652.44 64.47) scale(0.38)" gradientUnits="userSpaceOnUse"><stop offset="0" stop-color="#6dcff6"/><stop offset="1" stop-color="#00bac6"/></linearGradient><linearGradient id="_GS_Jade_to_Jade_Lt_Blue" x1="-1594.79" y1="-93.66" x2="-1607.94" y2="-80.52" gradientTransform="translate(652.44 64.47) scale(0.38)" gradientUnits="userSpaceOnUse"><stop offset="0" stop-color="#00bac6"/><stop offset="1" stop-color="#00a99d"/></linearGradient><linearGradient id="_GS_Lt_Blue_to_Blue" x1="-1693.11" y1="-107.62" x2="-1613.14" y2="-107.62" gradientTransform="translate(652.44 64.47) scale(0.38)" gradientUnits="userSpaceOnUse"><stop offset="0" stop-color="#0072bc"/><stop offset="1" stop-color="#6dcff6"/></linearGradient><linearGradient id="_GS_Red_to_Yellow" x1="-1706.75" y1="-150.9" x2="-1597.55" y2="-150.9" gradientTransform="translate(652.44 64.47) scale(0.38)" gradientUnits="userSpaceOnUse"><stop offset="0" stop-color="#fdb913"/><stop offset="0.6" stop-color="#f6841c"/><stop offset="1" stop-color="#f26522"/></linearGradient><linearGradient id="_GS_Lt_Green_to_Jade" x1="-1703.18" y1="-68.43" x2="-1611.52" y2="-68.43" gradientTransform="translate(652.44 64.47) scale(0.38)" gradientUnits="userSpaceOnUse"><stop offset="0" stop-color="#80c342"/><stop offset="1" stop-color="#00a99d"/></linearGradient></defs><g id="Layer_2" data-name="Layer 2"><g id="Layer_1-2" data-name="Layer 1"><path class="cls-1" d="M4.86,12.38,3.19,10.55A23.21,23.21,0,0,0,0,22.17H1.15A14,14,0,0,1,4.86,12.38Z"/><path class="cls-2" d="M4.56,30.39a10.83,10.83,0,0,1-3.41-8.2v0H0A28.63,28.63,0,0,0,2.21,33.6Z"/><path class="cls-3" d="M41,19.21l-2.13,2.2c3,0,4.76,2.32,4.7,5.22h1.15A9.54,9.54,0,0,0,41,19.21Z"/><path class="cls-4" d="M44.74,26.63H43.59C43.53,29,42.26,31,39.43,32.51l3,4.12A20.7,20.7,0,0,0,44.74,26.63Z"/><path class="cls-5" d="M6.05,18.83a7.56,7.56,0,0,0-.12,1.36C5.93,27,11,31.4,17.46,31.4c12.24,0,15.87-10,21.35-10h.08L41,19.21C38.38,17,34.46,15.67,29.7,15.67c-9.69,0-14.85,8.09-19.25,8.09-1.91,0-3.38-2.1-3.38-4.14,0-.21,0-.42,0-.62Z"/><path class="cls-6" d="M13.64,8.79c7.07,0,12,5.35,18.29,5.35,7.56,0,11.75-3.68,12.81-10.89l-1.15-.19C43.27,5,42,7.26,39.8,7.26s-4.34-1.85-7.58-3.63S25.23,0,20.58,0C13.1,0,6.78,4.41,3.19,10.55l1.67,1.83A11.91,11.91,0,0,1,13.64,8.79Z"/><path class="cls-7" d="M21,35.42c-5.48,0-12.4-1.19-16.47-5L2.21,33.6c3.38,7.77,10.58,12.9,21.37,12.9,7.13,0,15-2.82,18.83-9.87l-3-4.12C35.91,34.36,30,35.42,21,35.42Z"/><path class="cls-8" d="M63.57,34.8c-7.09,0-11-4.66-11-11.55S56.81,11.64,63.7,11.64a13.76,13.76,0,0,1,6.83,1.65l-.75,4.82a11,11,0,0,0-6-1.91c-3.85,0-5.72,2.84-5.72,7s1.93,7.15,5.78,7.15a6,6,0,0,0,3-.71v-4H63l-.64-4.11h9.34V32.44A14.71,14.71,0,0,1,63.57,34.8Z"/><path class="cls-8" d="M82.33,34.64A18.43,18.43,0,0,1,74.53,33l.81-4.73a15.85,15.85,0,0,0,7.09,2.07c1.58,0,2.69-.67,2.69-2s-.65-1.85-3.79-3.05c-4.46-1.71-6.4-3.17-6.4-6.85,0-4.3,3.36-6.6,7.63-6.6a14.17,14.17,0,0,1,6.73,1.49L88.45,18a12.17,12.17,0,0,0-5.82-1.81c-1.69,0-2.49.71-2.49,1.74s.61,1.69,3.39,2.75c4.85,1.78,6.79,3.46,6.79,7C90.32,32.5,86.76,34.64,82.33,34.64Z"/><path class="cls-9" d="M97.3,34.34V12.08h11.62v2H99.53v7.61H107l.32,2H99.53v8.65h9.71v2Z"/><path class="cls-9" d="M122.25,34.34V23.82c0-2-.9-3.16-2.84-3.16-1.61,0-3.26,1-4.93,2.65v11h-2.13V19.08H114l.36,2.26c1.68-1.49,3.42-2.58,5.48-2.58,3,0,4.55,1.74,4.55,4.68v10.9Z"/><path class="cls-9" d="M140.3,26.86H129.69c.06,3.74,1.8,6,4.87,6A8.29,8.29,0,0,0,140,30.57l.32,1.93a8.83,8.83,0,0,1-5.84,2.17c-4,0-6.87-2.71-6.87-8,0-4.91,2.84-7.94,6.58-7.94,4.16,0,6.16,3.42,6.16,7.64Zm-6.16-6.39c-2.39,0-3.94,1.77-4.36,4.71h8.33C137.88,22.44,136.59,20.47,134.14,20.47Z"/><path class="cls-9" d="M145.73,24.76v9.58H143.6V19.08h1.59l.48,3.13a6.83,6.83,0,0,1,5.42-3.45l.36,2A7.27,7.27,0,0,0,145.73,24.76Z"/><path class="cls-9" d="M166.39,18.82l.36,2.1-3.07.32a4.76,4.76,0,0,1,.81,2.71c0,3.23-2.68,5.2-5.71,5.2a5.77,5.77,0,0,1-1.33-.13c-.64.35-1,.74-1,1.1,0,.61.62.84,3.42,1.35l1.13.23c3.39.61,5.23,1.61,5.23,3.87,0,2.94-3.32,4.58-7.26,4.58s-7-1.32-7-4c0-1.55,1.19-2.87,3.48-4.06a1.88,1.88,0,0,1-1.12-1.58c0-.81.54-1.42,1.51-2A5,5,0,0,1,153.06,24c0-3.22,2.68-5.19,5.65-5.19a6,6,0,0,1,3.87,1.29ZM154.1,36.05c0,1.59,2,2.49,5,2.49s5.1-1.19,5.1-2.71c0-1.2-1-1.84-3.68-2.36L159,33.21c-.78-.16-1.3-.25-1.84-.38C155.1,33.8,154.1,34.83,154.1,36.05Zm4.61-15.71A3.46,3.46,0,0,0,155.16,24a3.62,3.62,0,0,0,7.23-.07A3.52,3.52,0,0,0,158.71,20.34Z"/><path class="cls-9" d="M175.21,36.25c-1.1,3-2.46,3.9-4.72,3.9a6,6,0,0,1-.84-.09l-.29-1.87a7.18,7.18,0,0,0,1.26.12c1.26,0,2-.55,2.58-2l.71-1.84-5.77-15.17,2.06-.38,4.75,13,4.52-12.81h2.19Z"/></g></g></svg>